<svg width="14" height="14" viewBox="0 0 14 14" fill="none" xmlns="http://www.w3.org/2000/svg">
<path d="M0.577253 12.2432C0.421009 12.3995 0.333261 12.6114 0.333313 12.8324C0.333365 13.0535 0.421213 13.2654 0.57753 13.4216C0.733848 13.5779 0.945831 13.6656 1.16685 13.6655C1.38786 13.6655 1.5998 13.5777 1.75604 13.4213L6.90118 8.27698C6.91408 8.26405 6.92941 8.25378 6.94628 8.24678C6.96315 8.23978 6.98124 8.23618 6.9995 8.23618C7.01777 8.23618 7.03586 8.23978 7.05273 8.24678C7.0696 8.25378 7.08493 8.26405 7.09783 8.27698L12.243 13.4225C12.3203 13.4999 12.4122 13.5613 12.5133 13.6032C12.6144 13.6451 12.7227 13.6666 12.8322 13.6667C12.9416 13.6667 13.05 13.6452 13.1511 13.6033C13.2522 13.5615 13.3441 13.5001 13.4215 13.4227C13.4989 13.3454 13.5603 13.2535 13.6022 13.1524C13.6441 13.0513 13.6657 12.943 13.6657 12.8336C13.6657 12.7241 13.6442 12.6158 13.6023 12.5147C13.5605 12.4135 13.4991 12.3217 13.4218 12.2443L8.27718 7.09768C8.26425 7.08478 8.25398 7.06945 8.24698 7.05258C8.23998 7.03571 8.23638 7.01762 8.23638 6.99936C8.23638 6.98109 8.23998 6.963 8.24698 6.94613C8.25398 6.92926 8.26425 6.91394 8.27718 6.90104L13.4229 1.75612C13.5791 1.59966 13.6668 1.38754 13.6666 1.16643C13.6665 0.945324 13.5785 0.733333 13.422 0.577095C13.2656 0.420858 13.0534 0.333172 12.8323 0.333328C12.6112 0.333485 12.3992 0.42147 12.243 0.577928L7.09783 5.72174C7.08493 5.73467 7.0696 5.74493 7.05273 5.75193C7.03586 5.75893 7.01777 5.76254 6.9995 5.76254C6.98124 5.76254 6.96315 5.75893 6.94628 5.75193C6.92941 5.74493 6.91408 5.73467 6.90118 5.72174L1.75604 0.577928C1.67868 0.500531 1.58683 0.439129 1.48573 0.397228C1.38464 0.355327 1.27628 0.333747 1.16685 0.333721C0.945831 0.333669 0.733848 0.421413 0.57753 0.577651C0.421213 0.733888 0.333365 0.945821 0.333313 1.16683C0.333261 1.38783 0.421009 1.59981 0.577253 1.75612L5.72183 6.90104C5.73476 6.91394 5.74503 6.92926 5.75203 6.94613C5.75903 6.963 5.76263 6.98109 5.76263 6.99936C5.76263 7.01762 5.75903 7.03571 5.75203 7.05258C5.74503 7.06945 5.73476 7.08478 5.72183 7.09768L0.577253 12.2432Z" fill="#EB5E58"/>
</svg>
